<?xml version="1.0" encoding="UTF-8"?>
<svg width="21px" height="18px" viewBox="0 0 21 18" version="1.1" xmlns="http://www.w3.org/2000/svg" xmlns:xlink="http://www.w3.org/1999/xlink">
    <!-- Generator: Sketch 50.2 (55047) - http://www.bohemiancoding.com/sketch -->
    <title>Logo Twitter</title>
    <desc>Created with Sketch.</desc>
    <defs></defs>
    <g id="Page-1" stroke="none" stroke-width="1" fill="none" fill-rule="evenodd">
        <g id="TWITTER-PROFILE-2018" transform="translate(-695.000000, -14.000000)" fill="#55ACEE">
            <g id="Header">
                <path d="M695.584443,29.3194234 C695.908999,29.357737 696.23925,29.3773375 696.574086,29.3773375 C698.517721,29.3773375 700.306549,28.7140992 701.726369,27.6014535 C699.910988,27.5679477 698.37889,26.3685418 697.851007,24.7203202 C698.104261,24.7687669 698.364172,24.7947284 698.631479,24.7947284 C699.00988,24.7947284 699.376374,24.7440628 699.724524,24.6492405 C697.826599,24.2681762 696.396646,22.5914044 696.396646,20.5813492 C696.396646,20.5638937 696.396646,20.546512 696.396942,20.5292044 C696.956334,20.8399286 697.595978,21.0265407 698.27608,21.0480643 C697.162917,20.3041309 696.430448,19.0343109 696.430448,17.5950387 C696.430448,16.8347591 696.635033,16.1221126 696.992133,15.509392 C699.038283,18.0192982 702.095155,19.6709221 705.543077,19.8439247 C705.472367,19.540301 705.435607,19.2236597 705.435607,18.8985124 C705.435607,16.6074667 707.293148,14.75 709.584341,14.75 C710.777534,14.75 711.855712,15.2538451 712.612516,16.0601305 C713.557484,15.8740362 714.445352,15.5287706 715.246904,15.0534018 C714.937141,16.0221128 714.279376,16.835129 713.422795,17.3485895 C714.261995,17.2482938 715.061549,17.0252913 715.805557,16.6953363 C715.249345,17.5272873 714.545944,18.2579811 713.735442,18.8428912 C713.743431,19.0207755 713.747425,19.1996952 713.747425,19.3795765 C713.747425,24.8617401 709.574652,31.1832511 701.943898,31.1832511 C699.601077,31.1832511 697.420386,30.4964921 695.584443,29.3194234 Z" id="Logo-Twitter"></path>
            </g>
        </g>
    </g>
</svg>