<?xml version="1.0" encoding="UTF-8"?>
<svg width="118px" height="32px" viewBox="0 0 118 32" version="1.1" xmlns="http://www.w3.org/2000/svg" xmlns:xlink="http://www.w3.org/1999/xlink">
    <!-- Generator: Sketch 52.4 (67378) - http://www.bohemiancoding.com/sketch -->
    <title>Group 2</title>
    <desc>Created with Sketch.</desc>
    <g id="Page-1" stroke="none" stroke-width="1" fill="none" fill-rule="evenodd">
        <g id="Artboard" transform="translate(-95.000000, -117.000000)" fill="#7159C1">
            <g id="Group-2" transform="translate(95.000000, 117.000000)">
                <g id="noun_Scissors_614100">
                    <g id="Group">
                        <path d="M22.2885367,24.3018973 C21.1207933,25.4585194 21.1207933,27.3402158 22.2885367,28.4968378 C22.8722205,29.0751488 23.6391977,29.3643974 24.4061749,29.3643974 C25.173152,29.3643974 25.9401292,29.0751489 26.5238131,28.4968378 C27.6915565,27.3402158 27.6915565,25.4585194 26.5238131,24.3018973 C25.3564453,23.1452753 23.4559045,23.1452753 22.2885367,24.3018973 Z M25.7080078,27.6888021 C24.9898588,28.3997396 23.822491,28.3997396 23.104342,27.6888021 C22.3865685,26.9778646 22.3865685,25.8208706 23.104342,25.1099331 C23.4634165,24.7544643 23.9347957,24.5768229 24.4061749,24.5768229 C24.8775541,24.5768229 25.3489333,24.7544643 25.7080078,25.1099331 C26.4257812,25.8208706 26.4257812,26.9778646 25.7080078,27.6888021 Z" id="Shape" fill-rule="nonzero"></path>
                        <path d="M22.2892878,21.3893229 C22.2892878,21.3893229 22.2892878,21.3893229 22.2892878,21.389509 C22.0823317,21.4750744 21.8671124,21.4419643 21.726262,21.3024554 L18.9423077,18.5450149 C18.8040865,18.4079241 18.8025842,18.2096354 18.8142278,18.1039807 C18.8749577,17.550014 18.7670664,16.9731446 18.5017747,16.3893462 C18.9552659,16.2881325 19.3650231,16.0747536 19.6905048,15.7520462 L28.3665114,7.15885421 C30.16564,5.37686015 30.5157001,2.61848964 29.2172476,0.451078895 C29.1263522,0.2994792 28.9697266,0.197730667 28.7928185,0.175781295 C28.6162861,0.154203924 28.439378,0.213541714 28.3131761,0.338727733 L16.2210787,12.3156622 C15.9178044,12.6160482 15.7096511,12.9879092 15.5991305,13.3992048 C15.0586642,13.1234421 14.5173528,12.9724935 13.9945162,12.9559152 C13.8735727,12.6352306 13.6865235,12.3456101 13.4401292,12.1015625 L1.68682392,0.460193448 C1.560622,0.335007429 1.38333835,0.275483619 1.2071815,0.29724701 C1.03027346,0.319196419 0.873647846,0.420944914 0.782752423,0.57254461 C-0.515700115,2.7397693 -0.16564,5.49813985 1.63348862,7.2801339 L9.97070315,15.5379464 C10.2167218,15.781808 10.5093149,15.9672619 10.8334586,16.0870535 C10.8535767,16.7130998 11.0737493,17.3658156 11.4738817,18.0115094 L8.27373804,21.1811755 C8.13326327,21.3203125 7.91766835,21.3537946 7.71071219,21.2680431 C5.6471605,20.4127603 3.29326927,20.8701636 1.71386723,22.4348958 C0.611478423,23.5264136 0.0285457308,25.0372023 0.114933923,26.579799 C0.200946538,28.1214657 0.954026462,29.563244 2.18111481,30.5355282 C3.17307692,31.3214286 4.382512,31.7133557 5.59232273,31.7133557 C6.82804988,31.7133557 8.06452827,31.3039435 9.06775842,30.4867931 C10.9694261,28.937314 11.6015625,26.3921131 10.640024,24.1530878 C10.5611478,23.96968 10.5919471,23.7702753 10.7185247,23.6450893 L13.9970985,20.3975539 C14.6896832,20.7682291 15.3763287,20.9314081 16.0310247,20.860863 C16.1376953,20.8491443 16.337515,20.8506324 16.4757362,20.9873511 L19.2814754,23.766555 C19.4080529,23.891555 19.4384766,24.0911458 19.359976,24.2747395 C18.3984375,26.5135788 19.0301983,29.0587797 20.9322416,30.6080729 C21.9358474,31.4254092 23.1715745,31.8348214 24.4076773,31.8348214 C25.617488,31.8348214 26.8272987,31.4425222 27.8188852,30.656808 C29.045598,29.6845237 29.7990535,28.2427454 29.8850661,26.7012648 C29.9714543,25.1588541 29.3885217,23.6478794 28.2861328,22.5561755 C26.7071064,20.9916294 24.3520883,20.5340402 22.2892878,21.3893229 Z M16.6763071,13.8472842 C16.7176232,13.5667783 16.8423227,13.3165923 17.036884,13.1236979 L28.5561899,1.71428571 C29.1642879,3.29892114 28.7943209,5.11904762 27.5507062,6.35081844 L18.8746995,14.9440104 C18.6801382,15.1367187 18.4277344,15.2602306 18.1445313,15.3011533 C18.0533542,15.3143368 17.9718018,15.3497954 17.9008836,15.3985305 C17.6923077,15.1220238 17.4530264,14.8458659 17.176232,14.5718006 C16.9864126,14.3837658 16.7933537,14.2168899 16.599168,14.0605236 C16.6378784,13.9970703 16.6647808,13.9251534 16.6763071,13.8472842 Z M9.90271935,22.8368675 C9.44148135,23.2935268 9.31415265,23.9858631 9.57857573,24.6004464 C10.3376653,26.3688616 9.83774038,28.3796503 8.33458535,29.6039806 C6.79424581,30.8590029 4.45838342,30.8763021 2.90226865,29.6430431 C1.91669173,28.8623512 1.33601265,27.7520461 1.26690208,26.516741 C1.19891831,25.298363 1.65902946,24.1050967 2.5296725,23.2429315 C3.77629208,22.0081845 5.63476565,21.6462053 7.26524942,22.3223586 C7.90339546,22.5861235 8.61891527,22.4559151 9.08954331,21.9892113 L12.1757625,18.9323846 C12.2686768,19.0349005 12.362577,19.1373233 12.4646935,19.2384672 C12.6514377,19.4234328 12.8392616,19.5876348 13.0273673,19.7419782 L9.90271935,22.8368675 Z M28.733098,26.6382069 C28.6639874,27.8733259 28.0833083,28.983631 27.0977314,29.7643229 C25.5419922,30.9975819 23.2061298,30.9806548 21.6654147,29.7252604 C20.1622597,28.5009301 19.6623348,26.4903274 20.4214243,24.7220982 C20.6858474,24.1069568 20.5585187,23.4146205 20.0972807,22.9583333 L17.2919171,20.1795015 C16.9876803,19.8781622 16.566256,19.7135417 16.1117789,19.7135417 C16.0437951,19.7135417 15.9754357,19.7172619 15.9063252,19.7247024 C15.1408504,19.8091518 14.2067308,19.3474702 13.2804988,18.4304316 C12.3369892,17.4959078 11.8836389,16.5390625 12.0042068,15.7364212 C12.0267428,15.5863096 11.9880559,15.4334078 11.8967849,15.31157 C11.8051383,15.1895462 11.6687951,15.108817 11.5170523,15.0868676 C11.2334736,15.045945 10.9810697,14.9224331 10.7865084,14.7299107 L2.44929388,6.47209821 C1.20567912,5.24032739 0.835712154,3.4203869 1.44381012,1.83575147 L12.6243239,12.9095982 C12.8188852,13.1024926 12.9435847,13.3526786 12.9849008,13.6329985 C13.0070613,13.7831101 13.0885667,13.9185268 13.2117638,14.0091146 C13.3345853,14.0997024 13.489333,14.1382069 13.6407002,14.1156994 C14.4497446,13.9955357 15.4169171,14.4453125 16.3604267,15.3798363 C17.2862831,16.296875 17.7505259,17.2204242 17.6671425,17.9808408 C17.6096755,18.5068825 17.7768179,19.0068825 18.1261268,19.3528646 L20.9104568,22.1104911 C21.381836,22.577381 22.098107,22.7083333 22.7347507,22.4434524 L22.7347507,22.4436384 C24.3644832,21.7680432 26.223708,22.1290923 27.4703276,23.3642113 C28.3409705,24.2263765 28.8010817,25.4198289 28.733098,26.6382069 Z" id="Shape" fill-rule="nonzero"></path>
                        <path d="M3.47618688,24.1806176 C2.3084435,25.3372396 2.3084435,27.218936 3.47618688,28.3755581 C4.05987077,28.9538691 4.82684796,29.2431176 5.59382512,29.2431176 C6.36080227,29.2431176 7.12777942,28.9538691 7.71146335,28.3755581 C8.87920673,27.218936 8.87920673,25.3372396 7.71146335,24.1806176 C6.54409554,23.0239955 4.64355469,23.0239955 3.47618688,24.1806176 Z M6.89565804,27.5675223 C6.177509,28.2784598 5.01014119,28.2784598 4.29199219,27.5675223 C3.57421877,26.8565848 3.57421877,25.6995908 4.29199219,24.9886533 C4.65106673,24.6331845 5.12244592,24.4555432 5.59382512,24.4555432 C6.06520431,24.4555432 6.53658354,24.6331845 6.89565804,24.9886533 C7.6134315,25.6995908 7.6134315,26.8565848 6.89565804,27.5675223 Z" id="Shape" fill-rule="nonzero"></path>
                        <path d="M15.3808594,16.7122396 C15.3654597,16.6780134 15.3459285,16.6437872 15.3267728,16.6132813 C15.3038612,16.5827753 15.2805739,16.5522694 15.2539063,16.5256696 C15.1190655,16.3962053 14.9230018,16.3351934 14.7344502,16.3694197 C14.6961388,16.3770461 14.6615836,16.3885789 14.6270283,16.4038318 C14.5920974,16.4188988 14.5575421,16.4341518 14.5267428,16.4570312 C14.4959435,16.4761905 14.4651443,16.4990699 14.4384766,16.5256696 C14.4114333,16.5522693 14.3885217,16.5827753 14.3652344,16.6132813 C14.3460787,16.6437872 14.3269231,16.6780134 14.3152795,16.7122396 C14.2998798,16.7466518 14.2882362,16.7847842 14.2807242,16.8190104 C14.2728365,16.8571429 14.2690805,16.8950893 14.2690805,16.9332217 C14.2690805,17.0818452 14.3306791,17.2304687 14.4384766,17.3370536 C14.4651442,17.359933 14.4959435,17.3865327 14.5267428,17.405692 C14.5575421,17.4285714 14.5920974,17.4438244 14.6270283,17.4588914 C14.6615836,17.4741443 14.6961388,17.4856771 14.7344502,17.4933035 C14.773137,17.4970238 14.8076923,17.50093 14.8460037,17.50093 C15,17.50093 15.1461088,17.4399181 15.2539063,17.3370535 C15.3613282,17.2304687 15.4229267,17.0818452 15.4229267,16.9332217 C15.4229267,16.8950892 15.4191707,16.8571428 15.4112831,16.8190104 C15.403771,16.7847842 15.3921274,16.7466518 15.3808594,16.7122396 Z" id="Path"></path>
                    </g>
                </g>
                <path d="M45.84,22.192 C45.1253298,22.192 44.4560031,22.0773345 43.832,21.848 C43.2079969,21.6186655 42.666669,21.2800022 42.208,20.832 C41.749331,20.3839978 41.3893346,19.82667 41.128,19.16 C40.8666654,18.49333 40.736,17.722671 40.736,16.848 C40.736,15.9839957 40.869332,15.2133367 41.136,14.536 C41.402668,13.8586633 41.7679977,13.2853357 42.232,12.816 C42.6960023,12.3466643 43.2373302,11.9893346 43.856,11.744 C44.4746698,11.4986654 45.1306632,11.376 45.824,11.376 C46.5813371,11.376 47.2319973,11.5146653 47.776,11.792 C48.3200027,12.0693347 48.762665,12.3839982 49.104,12.736 L47.872,14.24 C47.605332,14.0053322 47.3226682,13.8080008 47.024,13.648 C46.7253318,13.4879992 46.3520022,13.408 45.904,13.408 C45.4986646,13.408 45.1280017,13.4853326 44.792,13.64 C44.4559983,13.7946674 44.1653346,14.0159986 43.92,14.304 C43.6746654,14.5920014 43.485334,14.9439979 43.352,15.36 C43.218666,15.7760021 43.152,16.2453307 43.152,16.768 C43.152,17.8453387 43.3946642,18.679997 43.88,19.272 C44.3653358,19.864003 45.0986618,20.16 46.08,20.16 C46.2933344,20.16 46.5013323,20.1333336 46.704,20.08 C46.9066677,20.0266664 47.0719994,19.9466672 47.2,19.84 L47.2,18.048 L45.472,18.048 L45.472,16.128 L49.28,16.128 L49.28,20.928 C48.9173315,21.2800018 48.4373363,21.5786654 47.84,21.824 C47.2426637,22.0693346 46.5760037,22.192 45.84,22.192 Z M55.68,22.192 C54.9759965,22.192 54.3333362,22.0666679 53.752,21.816 C53.1706638,21.5653321 52.6720021,21.2053357 52.256,20.736 C51.8399979,20.2666643 51.5173345,19.6960034 51.288,19.024 C51.0586655,18.3519966 50.944,17.5893376 50.944,16.736 C50.944,15.8826624 51.0586655,15.12267 51.288,14.456 C51.5173345,13.78933 51.8399979,13.2293356 52.256,12.776 C52.6720021,12.3226644 53.1706638,11.9760012 53.752,11.736 C54.3333362,11.4959988 54.9759965,11.376 55.68,11.376 C56.3840035,11.376 57.0266638,11.4959988 57.608,11.736 C58.1893362,11.9760012 58.6879979,12.325331 59.104,12.784 C59.5200021,13.242669 59.8426655,13.80533 60.072,14.472 C60.3013345,15.13867 60.416,15.8933291 60.416,16.736 C60.416,17.5893376 60.3013345,18.3519966 60.072,19.024 C59.8426655,19.6960034 59.5200021,20.2666643 59.104,20.736 C58.6879979,21.2053357 58.1893362,21.5653321 57.608,21.816 C57.0266638,22.0666679 56.3840035,22.192 55.68,22.192 Z M55.68,20.16 C56.3946702,20.16 56.9599979,19.8533364 57.376,19.24 C57.7920021,18.6266636 58,17.7920053 58,16.736 C58,15.6906614 57.7920021,14.8746696 57.376,14.288 C56.9599979,13.7013304 56.3946702,13.408 55.68,13.408 C54.9653298,13.408 54.4000021,13.7013304 53.984,14.288 C53.5679979,14.8746696 53.36,15.6906614 53.36,16.736 C53.36,17.7920053 53.5679979,18.6266636 53.984,19.24 C54.4000021,19.8533364 54.9653298,20.16 55.68,20.16 Z M62.384,22 L62.384,11.568 L65.952,11.568 C66.4960027,11.568 66.9999977,11.6079996 67.464,11.688 C67.9280023,11.7680004 68.3333316,11.9093323 68.68,12.112 C69.0266684,12.3146677 69.2986657,12.5813317 69.496,12.912 C69.6933343,13.2426683 69.792,13.6586642 69.792,14.16 C69.792,14.3946678 69.7600003,14.6293322 69.696,14.864 C69.6319997,15.0986678 69.5413339,15.3173323 69.424,15.52 C69.3066661,15.7226677 69.1653342,15.9039992 69,16.064 C68.8346658,16.2240008 68.6453344,16.341333 68.432,16.416 L68.432,16.48 C68.698668,16.5440003 68.9439989,16.642666 69.168,16.776 C69.3920011,16.909334 69.5893325,17.0773323 69.76,17.28 C69.9306675,17.4826677 70.0639995,17.7199986 70.16,17.992 C70.2560005,18.2640014 70.304,18.5759982 70.304,18.928 C70.304,19.461336 70.200001,19.9199981 69.992,20.304 C69.783999,20.6880019 69.4960018,21.0053321 69.128,21.256 C68.7599982,21.5066679 68.3306691,21.6933327 67.84,21.816 C67.3493309,21.9386673 66.8213362,22 66.256,22 L62.384,22 Z M64.736,15.744 L65.84,15.744 C66.4160029,15.744 66.8346654,15.6320011 67.096,15.408 C67.3573346,15.1839989 67.488,14.8853352 67.488,14.512 C67.488,14.1066646 67.354668,13.8186675 67.088,13.648 C66.821332,13.4773325 66.4106694,13.392 65.856,13.392 L64.736,13.392 L64.736,15.744 Z M64.736,20.176 L66.064,20.176 C67.3546731,20.176 68,19.7066714 68,18.768 C68,18.309331 67.8400016,17.9813343 67.52,17.784 C67.1999984,17.5866657 66.7146699,17.488 66.064,17.488 L64.736,17.488 L64.736,20.176 Z M74.512,16.72 L74.256,17.68 L76.48,17.68 L76.24,16.72 C76.0906659,16.1973307 75.9466674,15.6426696 75.808,15.056 C75.6693326,14.4693304 75.5306674,13.9040027 75.392,13.36 L75.328,13.36 C75.1999994,13.9146694 75.069334,14.4826638 74.936,15.064 C74.802666,15.6453362 74.6613341,16.1973307 74.512,16.72 Z M70.736,22 L74,11.568 L76.832,11.568 L80.096,22 L77.6,22 L76.96,19.52 L73.776,19.52 L73.136,22 L70.736,22 Z M81.232,22 L81.232,11.568 L84.992,11.568 C85.5466694,11.568 86.0666642,11.6213328 86.552,11.728 C87.0373358,11.8346672 87.4613315,12.0133321 87.824,12.264 C88.1866685,12.5146679 88.4746656,12.8479979 88.688,13.264 C88.9013344,13.6800021 89.008,14.1973302 89.008,14.816 C89.008,15.5840038 88.8400017,16.2159975 88.504,16.712 C88.1679983,17.2080025 87.7173362,17.5786654 87.152,17.824 L89.52,22 L86.88,22 L84.88,18.24 L83.584,18.24 L83.584,22 L81.232,22 Z M83.584,16.368 L84.8,16.368 C85.4186698,16.368 85.890665,16.2373346 86.216,15.976 C86.541335,15.7146654 86.704,15.3280026 86.704,14.816 C86.704,14.3039974 86.541335,13.9466677 86.216,13.744 C85.890665,13.5413323 85.4186698,13.44 84.8,13.44 L83.584,13.44 L83.584,16.368 Z M91.04,22 L91.04,11.568 L94.608,11.568 C95.1520027,11.568 95.6559977,11.6079996 96.12,11.688 C96.5840023,11.7680004 96.9893316,11.9093323 97.336,12.112 C97.6826684,12.3146677 97.9546657,12.5813317 98.152,12.912 C98.3493343,13.2426683 98.448,13.6586642 98.448,14.16 C98.448,14.3946678 98.4160003,14.6293322 98.352,14.864 C98.2879997,15.0986678 98.1973339,15.3173323 98.08,15.52 C97.9626661,15.7226677 97.8213342,15.9039992 97.656,16.064 C97.4906658,16.2240008 97.3013344,16.341333 97.088,16.416 L97.088,16.48 C97.354668,16.5440003 97.5999989,16.642666 97.824,16.776 C98.0480011,16.909334 98.2453325,17.0773323 98.416,17.28 C98.5866675,17.4826677 98.7199995,17.7199986 98.816,17.992 C98.9120005,18.2640014 98.96,18.5759982 98.96,18.928 C98.96,19.461336 98.856001,19.9199981 98.648,20.304 C98.439999,20.6880019 98.1520018,21.0053321 97.784,21.256 C97.4159982,21.5066679 96.9866691,21.6933327 96.496,21.816 C96.0053309,21.9386673 95.4773362,22 94.912,22 L91.04,22 Z M93.392,15.744 L94.496,15.744 C95.0720029,15.744 95.4906654,15.6320011 95.752,15.408 C96.0133346,15.1839989 96.144,14.8853352 96.144,14.512 C96.144,14.1066646 96.010668,13.8186675 95.744,13.648 C95.477332,13.4773325 95.0666694,13.392 94.512,13.392 L93.392,13.392 L93.392,15.744 Z M93.392,20.176 L94.72,20.176 C96.0106731,20.176 96.656,19.7066714 96.656,18.768 C96.656,18.309331 96.4960016,17.9813343 96.176,17.784 C95.8559984,17.5866657 95.3706699,17.488 94.72,17.488 L93.392,17.488 L93.392,20.176 Z M100.72,22 L100.72,11.568 L107.248,11.568 L107.248,13.552 L103.072,13.552 L103.072,15.648 L106.624,15.648 L106.624,17.616 L103.072,17.616 L103.072,20.016 L107.408,20.016 L107.408,22 L100.72,22 Z M109.488,22 L109.488,11.568 L113.248,11.568 C113.802669,11.568 114.322664,11.6213328 114.808,11.728 C115.293336,11.8346672 115.717332,12.0133321 116.08,12.264 C116.442668,12.5146679 116.730666,12.8479979 116.944,13.264 C117.157334,13.6800021 117.264,14.1973302 117.264,14.816 C117.264,15.5840038 117.096002,16.2159975 116.76,16.712 C116.423998,17.2080025 115.973336,17.5786654 115.408,17.824 L117.776,22 L115.136,22 L113.136,18.24 L111.84,18.24 L111.84,22 L109.488,22 Z M111.84,16.368 L113.056,16.368 C113.67467,16.368 114.146665,16.2373346 114.472,15.976 C114.797335,15.7146654 114.96,15.3280026 114.96,14.816 C114.96,14.3039974 114.797335,13.9466677 114.472,13.744 C114.146665,13.5413323 113.67467,13.44 113.056,13.44 L111.84,13.44 L111.84,16.368 Z" id="GOBARBER"></path>
            </g>
        </g>
    </g>
</svg>