<?xml version="1.0" encoding="UTF-8"?>
<svg width="23px" height="23px" viewBox="0 0 23 23" version="1.1" xmlns="http://www.w3.org/2000/svg" xmlns:xlink="http://www.w3.org/1999/xlink">
    <!-- Generator: Sketch 50.2 (55047) - http://www.bohemiancoding.com/sketch -->
    <title>Add Icon</title>
    <desc>Created with Sketch.</desc>
    <defs>
        <path d="M18,11.5002 L5,11.5002" id="path-1"></path>
    </defs>
    <g id="Page-1" stroke="none" stroke-width="1" fill="none" fill-rule="evenodd">
        <g id="Spotify" transform="translate(-183.000000, -761.000000)">
            <g id="Client" transform="translate(159.000000, 149.000000)">
                <g id="Left-Sidebar">
                    <g id="New-Playlist" transform="translate(24.000000, 608.000000)">
                        <g id="Add-Icon" transform="translate(0.000000, 4.000000)">
                            <path d="M11.5,0.0002 C5.149,0.0002 0,5.1482 0,11.5002 C0,17.8512 5.149,23.0002 11.5,23.0002 C17.851,23.0002 23,17.8512 23,11.5002 C23,5.1482 17.851,0.0002 11.5,0.0002 M11.5,1.0002 C17.29,1.0002 22,5.7102 22,11.5002 C22,17.2902 17.29,22.0002 11.5,22.0002 C5.71,22.0002 1,17.2902 1,11.5002 C1,5.7102 5.71,1.0002 11.5,1.0002" id="Fill-3" fill="#AAAAAA"></path>
                            <path d="M11.5,5.0002 L11.5,18.0002" id="Stroke-8" stroke="#B3B3B3"></path>
                            <mask id="mask-2" fill="white">
                                <use xlink:href="#path-1"></use>
                            </mask>
                            <use id="Stroke-12" stroke="#B3B3B3" xlink:href="#path-1"></use>
                        </g>
                    </g>
                </g>
            </g>
        </g>
    </g>
</svg>