<?xml version="1.0" encoding="UTF-8"?>
<svg width="13px" height="13px" viewBox="0 0 13 13" version="1.1" xmlns="http://www.w3.org/2000/svg" xmlns:xlink="http://www.w3.org/1999/xlink">
    <!-- Generator: Sketch 50.2 (55047) - http://www.bohemiancoding.com/sketch -->
    <title>ion-android-alarm-clock - Ionicons</title>
    <desc>Created with Sketch.</desc>
    <defs></defs>
    <g id="Page-1" stroke="none" stroke-width="1" fill="none" fill-rule="evenodd">
        <g id="Spotify" transform="translate(-797.000000, -476.000000)" fill="#B3B3B3">
            <path d="M809.159091,478.823864 L808.363636,479.761364 L805.579545,477.431818 L806.375,476.494318 L809.159091,478.823864 Z M800.551136,477.403409 L797.795455,479.761364 L797,478.823864 L799.755682,476.465909 L800.551136,477.403409 Z M803.392045,480.1875 L803.392045,483.340909 L805.806818,484.761364 L805.352273,485.528409 L802.482955,483.795455 L802.482955,480.1875 L803.392045,480.1875 Z M799.1875,479.363636 C800.267051,478.303025 801.564386,477.772727 803.079545,477.772727 C804.594705,477.772727 805.887305,478.303025 806.957386,479.363636 C808.027467,480.424248 808.5625,481.702644 808.5625,483.198864 C808.5625,484.695083 808.027467,485.97348 806.957386,487.034091 C805.887305,488.094702 804.594705,488.625 803.079545,488.625 C801.564386,488.625 800.271786,488.094702 799.201705,487.034091 C798.131623,485.97348 797.596591,484.695083 797.596591,483.198864 C797.596591,481.702644 798.126889,480.424248 799.1875,479.363636 Z M800.068182,486.181818 C800.901519,487.015156 801.905297,487.431818 803.079545,487.431818 C804.253794,487.431818 805.257572,487.01989 806.090909,486.196023 C806.924247,485.372155 807.340909,484.373112 807.340909,483.198864 C807.340909,482.043555 806.924247,481.049247 806.090909,480.215909 C805.257572,479.382572 804.253794,478.965909 803.079545,478.965909 C801.905297,478.965909 800.901519,479.382572 800.068182,480.215909 C799.234844,481.049247 798.818182,482.043555 798.818182,483.198864 C798.818182,484.354172 799.234844,485.348481 800.068182,486.181818 Z" id="ion-android-alarm-clock---Ionicons"></path>
        </g>
    </g>
</svg>