<?xml version="1.0" encoding="UTF-8"?>
<svg width="20px" height="21px" viewBox="0 0 20 21" version="1.1" xmlns="http://www.w3.org/2000/svg" xmlns:xlink="http://www.w3.org/1999/xlink">
    <!-- Generator: Sketch 50.2 (55047) - http://www.bohemiancoding.com/sketch -->
    <title>spinner - FontAwesome</title>
    <desc>Created with Sketch.</desc>
    <defs></defs>
    <g id="Page-1" stroke="none" stroke-width="1" fill="none" fill-rule="evenodd">
        <g id="Artboard" transform="translate(-144.000000, -83.000000)" fill="#FFFFFF">
            <path d="M149.870543,99.4151767 C149.870543,100.196428 149.234381,100.84375 148.44197,100.84375 C147.660719,100.84375 147.013396,100.196428 147.013396,99.4151767 C147.013396,98.622765 147.660719,97.9866036 148.44197,97.9866036 C149.234381,97.9866036 149.870543,98.622765 149.870543,99.4151767 Z M155.428585,101.714287 C155.428585,102.506698 154.792424,103.14286 154.000012,103.14286 C153.2076,103.14286 152.571439,102.506698 152.571439,101.714287 C152.571439,100.921875 153.2076,100.285713 154.000012,100.285713 C154.792424,100.285713 155.428585,100.921875 155.428585,101.714287 Z M147.571433,93.8571343 C147.571433,94.649546 146.935271,95.2857075 146.14286,95.2857075 C145.350448,95.2857075 144.714287,94.649546 144.714287,93.8571343 C144.714287,93.0647227 145.350448,92.4285612 146.14286,92.4285612 C146.935271,92.4285612 147.571433,93.0647227 147.571433,93.8571343 Z M160.986627,99.4151767 C160.986627,100.196428 160.339305,100.84375 159.558054,100.84375 C158.765643,100.84375 158.129481,100.196428 158.129481,99.4151767 C158.129481,98.622765 158.765643,97.9866036 159.558054,97.9866036 C160.339305,97.9866036 160.986627,98.622765 160.986627,99.4151767 Z M150.227686,88.299092 C150.227686,89.281236 149.424114,90.0848084 148.44197,90.0848084 C147.459826,90.0848084 146.656253,89.281236 146.656253,88.299092 C146.656253,87.316948 147.459826,86.5133756 148.44197,86.5133756 C149.424114,86.5133756 150.227686,87.316948 150.227686,88.299092 Z M163.285737,93.8571343 C163.285737,94.649546 162.649576,95.2857075 161.857164,95.2857075 C161.064752,95.2857075 160.428591,94.649546 160.428591,93.8571343 C160.428591,93.0647227 161.064752,92.4285612 161.857164,92.4285612 C162.649576,92.4285612 163.285737,93.0647227 163.285737,93.8571343 Z M156.142872,85.9999821 C156.142872,87.1830192 155.183049,88.1428418 154.000012,88.1428418 C152.816975,88.1428418 151.857152,87.1830192 151.857152,85.9999821 C151.857152,84.816945 152.816975,83.8571224 154.000012,83.8571224 C155.183049,83.8571224 156.142872,84.816945 156.142872,85.9999821 Z M162.058057,88.299092 C162.058057,89.6830222 160.930824,90.799095 159.558054,90.799095 C158.174124,90.799095 157.058051,89.6830222 157.058051,88.299092 C157.058051,86.9263225 158.174124,85.799089 159.558054,85.799089 C160.930824,85.799089 162.058057,86.9263225 162.058057,88.299092 Z" id="spinner---FontAwesome"></path>
        </g>
    </g>
</svg>