<?xml version="1.0" encoding="UTF-8"?>
<svg width="12px" height="12px" viewBox="0 0 12 12" version="1.1" xmlns="http://www.w3.org/2000/svg" xmlns:xlink="http://www.w3.org/1999/xlink">
    <!-- Generator: Sketch 50.2 (55047) - http://www.bohemiancoding.com/sketch -->
    <title>ion-ios-search - Ionicons</title>
    <desc>Created with Sketch.</desc>
    <defs></defs>
    <g id="Page-1" stroke="none" stroke-width="1" fill="none" fill-rule="evenodd">
        <g id="Spotify" transform="translate(-457.000000, -164.000000)" fill="#000000">
            <path d="M469,175.28125 L468.28125,176 L464.75,172.46875 C463.895829,173.156253 462.895839,173.5 461.75,173.5 C460.437493,173.5 459.317713,173.036463 458.390625,172.109375 C457.463537,171.182287 457,170.062507 457,168.75 C457,167.437493 457.463537,166.317713 458.390625,165.390625 C459.317713,164.463537 460.437493,164 461.75,164 C463.062507,164 464.182287,164.463537 465.109375,165.390625 C466.036463,166.317713 466.5,167.437493 466.5,168.75 C466.5,169.875006 466.156253,170.864579 465.46875,171.71875 L469,175.28125 Z M458.75,171.78125 C459.562504,172.593754 460.562494,173 461.75,173 C462.916673,173 463.916663,172.583337 464.75,171.75 C465.583337,170.916663 466,169.916673 466,168.75 C466,167.583327 465.583337,166.583337 464.75,165.75 C463.916663,164.916663 462.916673,164.5 461.75,164.5 C460.583327,164.5 459.583337,164.916663 458.75,165.75 C457.916663,166.583337 457.5,167.583327 457.5,168.75 C457.5,169.937506 457.916663,170.947913 458.75,171.78125 Z" id="ion-ios-search---Ionicons"></path>
        </g>
    </g>
</svg>